**ABCDEFGHIJKLMNOPQRSTUVWXYZabcdefghijklmnopqrstuvwxyz**************************
**PARASOLID !"#$%&'()*+,-./:;<=>?@[\]^_`{|}~0123456789**************************
**PART1;
MC=AMD64;
MC_MODEL=Intel64 Family 6 Model 142 Stepping 12, GenuineIntel;
MC_ID=unknown;
OS=Windows_NT;
OS_RELEASE=unknown;
FRU=Parasolid Version 31.1, build 290,  3- 9-2020;
APPL=SOLIDWORKS 2020-2020296;
SITE=;
USER=unknown;
FORMAT=text;
GUISE=transmit;
KEY=makeProjectedPlanarWire;
FILE=makeProjectedPlanarWire.x_t;
DATE=Fri Nov 20 13:38:20 2020;
**PART2;
SCH=SCH_3101290_31100;
USFLD_SIZE=0;
**PART3;
**END_OF_HEADER*****************************************************************
T51 : TRANSMIT FILE created by modeller version 310129023 SCH_3101290_31100_1300
6222 0 12 34 CCCCCCI4 mesh1006 0 I8 polyline1008 0 CCCCCCCDI5 owner1040 0 CCCCCC
I13 boundary_mesh1006 0 I17 boundary_polyline1008 0 CCCA16 index_map_offset0 0 1
 dA9 index_map82 0 A17 node_id_index_map82 0 A20 schema_embedding_map82 0 A5 chi
ld12 0 A14 lowest_node_id0 0 1 dA16 mesh_offset_data206 0 Z1 40 2 3 0 0 0 0 0 0
 1e3 1e-8 0 4 0 1 0 3 1 5 6 7 8 0 0 9 10 11 0 0 0 0 0 0 0 81 255 2 2 14 12 1 0 0
 0 0 13 0 70 11 CI9 list_type0 0 1 uI10 notransmit0 0 1 lCCCDCCDI12 finger_index
0 0 1 dI12 finger_block1012 0 CZ3 0 4 T1 0 0 1 20 1 14 14 13 255 5 21 0 1 0 15 0
 0 9 15 50 255 6 3 0 15 0 0 0 +0 0 .11 0 0 1 1 0 0 31 255 7 13 0 10 16 0 0 +0 0
 .11 0 0 1 1 0 0 .03638565247336155 29 255 8 38 0 11 17 0 -.011405574924643 -.04
043678772917895 .11 19 8 CCCCCCCA5 owner12 0 Z9 20 0 1 0 0 5 V0 16 255 10 11 0 ?
18 0 19 7 0 0 1 18 255 11 36 0 20 0 21 8 ?1 17 255 20 0 0 0 0 11 22 23 0 24 -18
 21 33 0 22 11 25 17 ?1 17 22 0 26 27 24 21 20 23 0 28 +18 25 30 0 27 21 29 30 ?
1 29 17 35 0 21 30 8 .02931649795858635 -.0300959114940971 .11 29 30 32 0 25 31
 17 .04072207288322935 .01034087623508186 .11 29 31 29 0 29 32 30 .0114055749246
43 .04043678772917895 .11 18 29 27 0 33 25 34 31 ?1 29 32 26 0 34 35 31 -.029316
49795858635 .0300959114940971 .11 18 34 24 0 36 29 37 32 ?1 29 35 23 0 37 0 32 -
.04072207288322935 -.01034087623508184 .11 18 37 22 0 38 34 0 35 ?1 17 38 0 26 2
4 36 37 39 40 0 41 +15 255 26 6 0 24 15 42 17 24 0 26 22 38 11 41 19 0 0 +17 36
 0 26 38 33 34 43 44 0 39 +17 39 0 0 0 0 34 38 40 0 0 -16 40 25 0 ?38 44 0 16 19
 44 1 17 41 0 0 0 0 37 24 19 0 0 -16 19 8 0 ?24 10 23 16 23 40 1 16 23 37 0 ?22
 19 45 16 45 19 1 31 16 10 0 19 0 7 0 +0 0 .11 0 0 1 1 0 0 .04201453250027095 16
 45 34 0 ?27 23 46 16 46 23 1 17 27 0 26 33 22 25 28 45 0 47 +16 46 31 0 ?33 45
 44 16 44 45 1 17 33 0 26 36 27 29 47 46 0 43 +16 44 28 0 ?36 46 40 16 40 46 1 1
7 47 0 0 0 0 25 33 46 0 0 -17 43 0 0 0 0 29 36 44 0 0 -17 28 0 0 0 0 21 27 45 0
 0 -14 255 15 1 0 ?0 0 26 5 6 +0 0 0 0 5 15 42 7 0 48 15 0 17 48 0 42 48 48 0 18
 10 0 0 -17 18 0 0 0 0 0 48 10 0 0 +74 4 CI16 index_map_offset0 0 1 dCCZ20 14 1
 0 0 2 0 0 0 0 0 0 0 0 0 0 0 0 0 0 0 0 0 0 0 80 255 2 12 49 50 8004 0 0 0 0 3 5
 0 0 0 FFTFFFFFFFFFFF2 3 83 255 1 13 1 79 255 16 50 SDL/TYSA_DENSITY1 0 
